<svg width="20" height="20" viewBox="0 0 20 20" fill="none" xmlns="http://www.w3.org/2000/svg">
<g id="Frame" clip-path="url(#clip0_25_187)">
<g id="Group">
<path id="Vector" d="M19.9479 7.28126C19.8839 7.08307 19.763 6.90808 19.6003 6.77811C19.4376 6.64814 19.2402 6.56894 19.0328 6.55038L13.2602 6.02619L10.9776 0.683473C10.8093 0.29194 10.426 0.0385742 10.0001 0.0385742C9.57423 0.0385742 9.1909 0.291979 9.02262 0.68445L6.73998 6.02623L0.966515 6.55038C0.759328 6.56936 0.562268 6.64873 0.399766 6.77865C0.237263 6.90857 0.116466 7.08333 0.0523513 7.28126C-0.0793317 7.68627 0.0422729 8.13046 0.36318 8.41047L4.72657 12.2371L3.4399 17.9048C3.34576 18.3216 3.50748 18.7524 3.85327 19.0023C4.03909 19.1366 4.25656 19.205 4.47582 19.205C4.66489 19.205 4.8524 19.154 5.02076 19.0533L10.0001 16.0773L14.9777 19.0533C15.3419 19.2724 15.801 19.2524 16.146 19.0023C16.3149 18.88 16.4442 18.7108 16.5177 18.5157C16.5912 18.3206 16.6057 18.1082 16.5594 17.9048L15.2728 12.2371L19.6361 8.41125C19.7931 8.27416 19.9063 8.09397 19.9617 7.89308C20.0172 7.69218 20.0123 7.47943 19.9479 7.28126Z" fill="#7D7D7D" fill-opacity="0.5"/>
</g>
</g>
<defs>
<clipPath id="clip0_25_187">
<rect width="20" height="20" fill="white"/>
</clipPath>
</defs>
</svg>
